<svg xmlns:xlink="http://www.w3.org/1999/xlink" xmlns="http://www.w3.org/2000/svg" width="150" height="74.32723999056459" x="0" y="0" enable-background="new 0 0 1400 980" version="1.1" viewBox="0 0 462.089 228.972"><path fill="#FFFFFF" fill-opacity="0" d="M0 0H462.089V228.972H0z" pointer-events="none"></path><path fill="#0A0619" fill-opacity="0" d="M0 0h340v250H0V0z" class="background" transform="matrix(3.42397 0 0 3.42397 -348.481 -309.144)"></path><g fill="#FFFFFF" class="iconlettersvg-g iconlettersvg"><g class="tp-name" fill="#FFFFFF"><g class="name-imagesvg" transform="matrix(3.42397 0 0 3.42397 -348.481 -309.144) translate(110.315 100)" fill="#FFFFFF"><path fill-opacity="0" stroke-width="2px" d="M0 0h32.873v50H0V0z" class="image-rect" fill="#FFFFFF"></path><svg width="32.873" height="50" class="image-svg-svg primary" overflow="visible" fill="#FFFFFF"><svg xmlns="http://www.w3.org/2000/svg" viewBox="0 0 100.98 153.59" fill="#FFFFFF"><defs><filter id="a4e73bee6-e258-4aa5-aeac-94ec47bf9ac1" width="94.91" height="147.52" x="6.07" y="6.07" color-interpolation-filters="sRGB" filterUnits="userSpaceOnUse"><feFlood flood-color="#fff" result="bg"></feFlood><feBlend in="SourceGraphic" in2="bg"></feBlend></filter><mask id="b6336864e-0bd9-4ddb-9853-3abd7ff9c3c4" width="94.91" height="147.52" x="6.07" y="6.07" maskUnits="userSpaceOnUse"><path fill="#000" d="M82.97 34.4V6.07H6.07v129.51h76.9v-28.33H36.42V84.99h46.55V56.66H36.42V34.4h46.55z" filter="url(#a4e73bee6-e258-4aa5-aeac-94ec47bf9ac1)"></path></mask></defs><g mask="url(#b6336864e-0bd9-4ddb-9853-3abd7ff9c3c4)" fill="#FFFFFF"><path d="M82.97 6.07V34.4H36.42v22.26l18.01 18.01V52.41h46.55V24.08L82.97 6.07z" fill="#FFFFFF"></path><path d="M82.97 56.66v28.33H36.42v22.26l18.01 18.02V103h46.55V74.67L82.97 56.66z" fill="#FFFFFF"></path><path d="M82.97 107.25v28.33H6.07l18.01 18.01h76.9v-28.32l-18.01-18.02z" fill="#FFFFFF"></path></g><path fill="#F95738" d="M76.9 28.33V0H0v129.51h76.9v-28.33H30.35V78.92H76.9V50.59H30.35V28.33H76.9z"></path></svg></svg></g><g class="name-imagesvg" transform="matrix(3.42397 0 0 3.42397 -348.481 -309.144) translate(110.315 100) translate(32.873)" fill="#FFFFFF"><path fill-opacity="0" stroke-width="2px" d="M0 0h41.11v50H0V0z" class="image-rect" fill="#FFFFFF"></path><svg width="41.109" height="50" class="image-svg-svg primary" overflow="visible" fill="#FFFFFF"><svg xmlns="http://www.w3.org/2000/svg" viewBox="0 0 126.28 153.59" fill="#FFFFFF"><defs><filter id="a17561390-8ccb-49a9-a4d0-720834389426" width="120.21" height="147.52" x="6.07" y="6.07" color-interpolation-filters="sRGB" filterUnits="userSpaceOnUse"><feFlood flood-color="#fff" result="bg"></feFlood><feBlend in="SourceGraphic" in2="bg"></feBlend></filter><mask id="b266025ec-87f1-4355-95b8-89cee7df0cbe" width="120.21" height="147.52" x="6.07" y="6.07" maskUnits="userSpaceOnUse"><path fill="#000" d="M108.27 6.07H74.23L57.18 38.5 40.11 6.07H6.07l34.09 64.77-34.09 64.74h34.04l17.07-32.42 17.05 32.42h34.04L74.2 70.84l34.07-64.77z" filter="url(#a17561390-8ccb-49a9-a4d0-720834389426)"></path></mask></defs><g mask="url(#b266025ec-87f1-4355-95b8-89cee7df0cbe)" fill="#FFFFFF"><path d="M75.19 56.51L58.12 24.08 40.11 6.07 57.18 38.5l18.01 18.01zM126.28 24.08L108.27 6.07 74.2 70.84l34.07 64.74H74.23l18.01 18.01h34.04L92.21 88.85l34.07-64.77z" fill="#FFFFFF"></path><path d="M57.18 103.16l-17.07 32.42H6.07l18.01 18.01h34.04l17.07-32.42-18.01-18.01z" fill="#FFFFFF"></path></g><path fill="#F95738" d="M102.2 0H68.16L51.11 32.43 34.04 0H0l34.09 64.77L0 129.51h34.04l17.07-32.42 17.05 32.42h34.03L68.13 64.77 102.2 0z"></path></svg></svg></g><g class="name-imagesvg" transform="matrix(3.42397 0 0 3.42397 -348.481 -309.144) translate(110.315 100) translate(73.983)" fill="#FFFFFF"><path fill-opacity="0" stroke-width="2px" d="M0 0h45.387v50H0V0z" class="image-rect" fill="#FFFFFF"></path><svg width="45.387" height="50" class="image-svg-svg primary" overflow="visible" fill="#FFFFFF"><svg xmlns="http://www.w3.org/2000/svg" viewBox="0 0 139.42 153.59" fill="#FFFFFF"><defs><filter id="aaae9a2d4-23bf-4549-91ce-691a0fe22912" width="133.35" height="147.52" x="6.07" y="6.07" color-interpolation-filters="sRGB" filterUnits="userSpaceOnUse"><feFlood flood-color="#fff" result="bg"></feFlood><feBlend in="SourceGraphic" in2="bg"></feBlend></filter><mask id="b8855af50-2b12-462f-b8fd-179e8573d546" width="133.35" height="147.52" x="6.07" y="6.07" maskUnits="userSpaceOnUse"><path fill="#000" d="M95.97 6.07L63.74 60.24 31.53 6.07H6.07v129.51h30.35V73.11l27.32 45.92 27.32-45.92v62.47h30.35V6.07H95.97z" filter="url(#aaae9a2d4-23bf-4549-91ce-691a0fe22912)"></path></mask></defs><g mask="url(#b8855af50-2b12-462f-b8fd-179e8573d546)" fill="#FFFFFF"><path d="M36.42 135.58H6.07l18.01 18.01h30.35V91.12L36.42 73.11v62.47zM81.75 78.25L49.54 24.08 31.53 6.07l32.21 54.17 18.01 18.01zM91.06 73.11l-27.32 45.92 18.01 18.01 27.32-45.92-18.01-18.01z" fill="#FFFFFF"></path><path d="M121.41 6.07v129.51H91.06l18.01 18.01h30.35V24.08L121.41 6.07z" fill="#FFFFFF"></path></g><path fill="#F95738" d="M89.9 0L57.67 54.17 25.46 0H0v129.51h30.35V67.04l27.32 45.92 27.31-45.92v62.47h30.35V0H89.9z"></path></svg></svg></g></g></g></svg>